<?xml version="1.0" encoding="UTF-8"?>
<svg version="1.1" viewBox="0 0 1024 1024" width="1024" height="1024" xmlns="http://www.w3.org/2000/svg">

<path transform="translate(580,443)" d="m0 0h68l19 19 8 7 20 20 5-5 12-11 30-30h68l-6 7-9 9-8 7-8 8-8 7-17 16-9 9-8 7-8 8h-2l7 8 33 33 8 7 35 35v1h-68l-8-8-7-8-11-11-7-8-13-13-4 2-1 2h-2v2h-2l-2 4-15 15-7 8-11 11-4 5h-68l2-4 24-24 8-7 6-6-31-1-6-9-3-5h-31l-29 1-8 15h-39l6-12h2l1-4 13-21 17-28 16-26 2-3 12-1h25l7 10 24 36 27 41 4-2 30-30 3-2-1-4-10-10-8-7-9-9-8-7-8-8-8-7-9-9-8-7-13-12z" fill="#952EB5"/>
<path transform="translate(140,444)" d="m0 0h91l9 3 10 5 6 7 4 4 6 14 1 1v97h-2l-2 10-8 9-6 7-5 3-7 1v2l-3 1h-69l-27-1-11-4-9-4-7-7-6-10-3-10v-92l1-3h2l2-9 6-10 7-7 16-6z" fill="#7AA2F4"/>
<path transform="translate(369,474)" d="m0 0h55l16 3 12 5 8 7 4 10 1 10-3 12-5 7-9 6 9 6 4 7 4 16v3l-15 1h-22l-8-19-5-5-3-1-36-1 1 12v15l-15 1h-24l-1-18-1-51v-25z" fill="#FFFFFF"/>
<path transform="translate(542,471)" d="m0 0h25l7 10 24 36 27 41-2 5-2 1h-32l-6-9-3-5h-31l-29 1-8 15h-39l6-12h2l1-4 13-21 17-28 16-26 2-3z" fill="#FFFFFF"/>
<path transform="translate(155,476)" d="m0 0 4 1 14 17 11 13 2 1 2-4 7-8 1-2h2l2-5 5-6h2l2-4 3-3h1v67l-9 11-11 14-7 8-4-2-11-13-8-10-5-6-5 4-1 2-3 1-11 14-7 8-2-2v-65l9-10 9-11 5-5 1-3h2z" fill="#BFBDEE"/>
<path transform="translate(188,444)" d="m0 0h43l9 3 10 5 6 7 4 4 6 14 1 1v97h-2l-1 7h-3v-3l-4-2-7-10-1-4-3-2-4-12-1-5-1-35-12-14-11-14-5-4h-2l-2 4-3-1-12-5-3-5-1-3h-2l-4-6-2-4-4-4-2-5-11-1v-2z" fill="#536FFC"/>
<path transform="translate(140,444)" d="m0 0h48v1h-24v2h9l4 4 2 5 3 1 3 5 2 5h2l4 5v3l9 3 4 2 1 3-5 5-4 6h-2l-2 5-7 7-1 2-4-2-13-15-8-10-3-4-3-1v2h-2l-1 4-3 1-2 4-12 14-6 8-2 32-1 2h-2l-1 2-3-1-1-4h-2l-2-5-4-3-3-10-2-4-2-17h-1v-20l5-15 6-9 8-7 14-5z" fill="#5C80F9"/>
<path transform="translate(213,477)" d="m0 0 6 5 8 10 9 11 5 6 1 35 2 9 3 8 3 2 2 5 7 10 2 1v3h2l-1 4-9 11-6 5-7 1-7-1-4-3-1-3-3-1-5-9-1-3h-2l-7-9-5-3-3-4v-2l-3-1v-5l12-14 1-2z" fill="#5D81F9"/>
<path transform="translate(312,475)" d="m0 0 3 1 1 51v42l-3 1h-35l-1-1-1-52v-41z" fill="#FFFFFF"/>
<path transform="translate(157,544)" d="m0 0 5 4 11 14 11 13 4-2 10-13 2 4 5 5v2l5 2 7 8v2h2l6 10v2l4 1 1 3 4 2 11 1-1 2-11 3h-49l-16-2-5-4v-2l-5-1v-3h2l-2-8 1-4-3-3-2-5-6-3-3-5-1-1v-5l2-2 2-7 4-1 2-4z" fill="#6890F6"/>
<path transform="translate(132,446)" d="m0 0 4 1h-2l1 10-2 4 4 3 1 8 2 1 2 8-2 7h3 3l-9 11-8 10-2 32-1 2h-2l-1 2-3-1-1-4h-2l-2-5-4-3-3-10-2-4-2-17h-1v-20l5-15 6-9 8-7z" fill="#6890F6"/>
<path transform="translate(212,476)" d="m0 0h1v67l-9 11-11 14-6 7h-2v-66l3-5 7-8 1-2h2l2-5 5-6h2l2-4z" fill="#D5D2F3"/>
<path transform="translate(155,477)" d="m0 0 2 1v64l-11 14-11 13-5 5-1-2v-65l9-10 9-11 5-5 1-3z" fill="#FCFCFC"/>
<path transform="translate(213,477)" d="m0 0 6 5 8 10 9 11 4 5v66l-6-5-9-11-11-13-2-2z" fill="#A485E4"/>
<text x="420" y="600" font-family="Arial, Helvetica, sans-serif" font-size="34" font-weight="700" letter-spacing="4" fill="#FFFFFF">GROUP</text>
<path transform="translate(373,605)" d="m0 0h5l2 2-1 5-11 9-12 12-9 11-2 5 5 10 7 9 4 2 4-1 5-3 4 4-2 5-5 4-7 1-8-4-8-9-5-8v-2l-5 5-12 20-10 17-2 3h-5l-2-5 9-17 13-21 8-12-6-18-2-10v-6l3-3 5 2 4 17 2 9 5-5 11-13 10-9z" fill="#952EB5"/>
<path transform="translate(376,497)" d="m0 0h36l9 2 4 4v8l-4 4-7 2-8 1h-30l-1-20z" fill="#0F172A"/>
<path transform="translate(576,636)" d="m0 0h9l5 5 1 2v12l-4 6-4 2-9-1-4-5-1-4v-8l2-5z" fill="#0F172A"/>
<path transform="translate(549,498)" d="m0 0 4 5 13 22-1 2h-32l6-12z" fill="#0F172A"/>
<path transform="translate(299,636)" d="m0 0h12l6 5 1 2v12l-4 6-2 1h-13z" fill="#0F172A"/>
<path transform="translate(473,636)" d="m0 0h13l4 3 1 5-3 6h-2l5 10-1 3-3-1-5-10-6-1v11h-3z" fill="#FFFFFF"/>
<path transform="translate(278,636)" d="m0 0h4l9 24v2l-4-1-1-6h-11l-3 7h-3l4-13 4-12z" fill="#FFFFFF"/>
<path transform="translate(667,636)" d="m0 0 5 1 11 19 1-20h3v26l-5-1-11-18-1 19h-3z" fill="#FFFFFF"/>
<path transform="translate(600,636)" d="m0 0h4l8 13 4 7 1-20h3v26h-4l-10-16-2-4-1 20h-3z" fill="#FFFFFF"/>
<path transform="translate(507,636)" d="m0 0 4 1 7 19 1 6h-3l-3-7h-9l-3 7h-3l3-11 5-14z" fill="#FFFFFF"/>
<path transform="translate(418,636)" d="m0 0 4 1 8 13 3 5 1-18 3-1v26h-4l-11-18-1 18-3 1z" fill="#FFFFFF"/>
<path transform="translate(745,636)" d="m0 0 4 1 8 13 3 5 1-18 3-1v26l-2 1-4-4-9-16-1 19h-3z" fill="#FFFFFF"/>
<path transform="translate(368,636)" d="m0 0h10l4 3v3l-4-1-3-2-8 1-1 4v10l2 4 2 1h7l2-2 1-5h-6l1-3h8v13l-4-1-3 2h-7l-6-5-1-3v-12l4-6z" fill="#FFFFFF"/>
<path transform="translate(703,636)" d="m0 0h9l4 4v2l-4-1-3-2-8 1-1 4v11l4 4h6l3-2 1-5h-5v-3h8v13l-4-1-3 2-9-1-4-4-1-3v-12l3-5z" fill="#FFFFFF"/>
<path transform="translate(576,636)" d="m0 0h9l5 5 1 2v12l-4 6-4 2-9-1-4-5-1-4v-8l2-5zm2 2-5 4-1 3v9l3 5 2 1h6l5-5v-12l-4-4z" fill="#FFFFFF"/>
<path transform="translate(299,636)" d="m0 0h12l6 5 1 2v12l-4 6-2 1h-13zm3 3v21h8l5-5v-11l-4-5z" fill="#FFFFFF"/>
<path transform="translate(642,636)" d="m0 0h16v3h-13l1 8 11 1v2l-11 1v8l12 1v2h-16z" fill="#FFFFFF"/>
<path transform="translate(246,636)" d="m0 0h16v3h-13l1 8 11 1v2l-11 1v8l12 1v2h-16z" fill="#FFFFFF"/>
<path transform="translate(393,636)" d="m0 0h15v3h-12v9h12v2h-12v9l13 1v2l-16 1z" fill="#FFFFFF"/>
<path transform="translate(448,636)" d="m0 0h15v3h-13l1 8 12 1v2l-12 1v8l12 1v3h-10l-5-1z" fill="#FFFFFF"/>
<path transform="translate(775,636)" d="m0 0h15v3h-12v9h12v2h-12v9l12 1v2h-15l-1-2z" fill="#FFFFFF"/>
<path transform="translate(525,636)" d="m0 0h20l-1 3h-8v23h-3v-23h-8z" fill="#FFFFFF"/>
<path transform="translate(726,636)" d="m0 0h10v2l-3 1-1 21h4v2h-11v-2h4l-1-21-3-2z" fill="#FFFFFF"/>
<path transform="translate(551,636)" d="m0 0h10v2h-3v21l3 1v2h-10v-2l3-1v-20l-3-1z" fill="#FFFFFF"/>
<path transform="translate(476,639)" d="m0 0h10l1 1v7l-3 2h-7l-1-1z" fill="#0F172A"/>
<path transform="translate(225,636)" d="m0 0h2l1 23 10 1 1 2h-15v-25z" fill="#FFFFFF"/>
<path transform="translate(128,509)" d="m0 0h1l1 63 1 3h-3z" fill="#C0BDEE"/>
<path transform="translate(508,639)" d="m0 0 2 2 3 11h-9l3-11z" fill="#0F172A"/>
<path transform="translate(279,640)" d="m0 0h2l3 9v3h-8l1-7z" fill="#0F172A"/>
<path transform="translate(694,556)" d="m0 0 4 2-4 2-24 24v-3l16-16 1-2h2v-2h2l2-4z" fill="#D5CEF2"/>
<path transform="translate(333,612)" d="m0 0 2 1 4 18 2 3 9-10v3l-9 11h-2l-5-16z" fill="#CBC5F0"/>
<path transform="translate(348,655)" d="m0 0 4 4 6 8 5 1 5-3 5 1 2 3-1 5-1-4-3-3-5 3-4 1-5-3-7-9z" fill="#C8C2F0"/>
<path transform="translate(192,486)" d="m0 0 5 2 2 1-1 5h-2l-2 4h-2l-1-7z" fill="#5271FC"/>
<path transform="translate(471,550)" d="m0 0 6 1 5-1-1 4h-2l-1 3-7-1-1-5z" fill="#C3B9EE"/>
<path transform="translate(124,452)" d="m0 0 4 4-1 3h-8v-3z" fill="#5C80FA"/>
<path transform="translate(150,476)" d="m0 0h5v2h-2l-1 4-3 1-1 3-1-2v-5z" fill="#7494F5"/>
<path transform="translate(135,573)" d="m0 0 4 2v4l-5 1-1-5h2z" fill="#6890F6"/>
<path transform="translate(120,451)" d="m0 0 2 1-9 10-1-3z" fill="#94A6F2"/>
</svg>
