<svg xmlns="http://www.w3.org/2000/svg" viewBox="94 436 181 180" width="181" height="180">
  <!-- Blue rounded box -->
  <path transform="translate(140,444)" d="m0 0h91l9 3 10 5 6 7 4 4 6 14 1 1v97h-2l-2 10-8 9-6 7-5 3-7 1v2l-3 1h-69l-27-1-11-4-9-4-7-7-6-10-3-10v-92l1-3h2l2-9 6-10 7-7 16-6z" fill="#7AA2F4"/>
  <!-- M shape layers -->
  <path transform="translate(155,476)" d="m0 0 4 1 14 17 11 13 2 1 2-4 7-8 1-2h2l2-5 5-6h2l2-4 3-3h1v67l-9 11-11 14-7 8-4-2-11-13-8-10-5-6-5 4-1 2-3 1-11 14-7 8-2-2v-65l9-10 9-11 5-5 1-3h2z" fill="#BFBDEE"/>
  <path transform="translate(188,444)" d="m0 0h43l9 3 10 5 6 7 4 4 6 14 1 1v97h-2l-1 7h-3v-3l-4-2-7-10-1-4-3-2-4-12-1-5-1-35-12-14-11-14-5-4h-2l-2 4-3-1-12-5-3-5-1-3h-2l-4-6-2-4-4-4-2-5-11-1v-2z" fill="#536FFC"/>
  <path transform="translate(140,444)" d="m0 0h48v1h-24v2h9l4 4 2 5 3 1 3 5 2 5h2l4 5v3l9 3 4 2 1 3-5 5-4 6h-2l-2 5-7 7-1 2-4-2-13-15-8-10-3-4-3-1v2h-2l-1 4-3 1-2 4-12 14-6 8-2 32-1 2h-2l-1 2-3-1-1-4h-2l-2-5-4-3-3-10-2-4-2-17h-1v-20l5-15 6-9 8-7 14-5z" fill="#5C80F9"/>
  <path transform="translate(213,477)" d="m0 0 6 5 8 10 9 11 5 6 1 35 2 9 3 8 3 2 2 5 7 10 2 1v3h2l-1 4-9 11-6 5-7 1-7-1-4-3-1-3-3-1-5-9-1-3h-2l-7-9-5-3-3-4v-2l-3-1v-5l12-14 1-2z" fill="#5D81F9"/>
  <path transform="translate(157,544)" d="m0 0 5 4 11 14 11 13 4-2 10-13 2 4 5 5v2l5 2 7 8v2h2l6 10v2l4 1 1 3 4 2 11 1-1 2-11 3h-49l-16-2-5-4v-2l-5-1v-3h2l-2-8 1-4-3-3-2-5-6-3-3-5-1-1v-5l2-2 2-7 4-1 2-4z" fill="#6890F6"/>
  <path transform="translate(132,446)" d="m0 0 4 1h-2l1 10-2 4 4 3 1 8 2 1 2 8-2 7h3 3l-9 11-8 10-2 32-1 2h-2l-1 2-3-1-1-4h-2l-2-5-4-3-3-10-2-4-2-17h-1v-20l5-15 6-9 8-7z" fill="#6890F6"/>
  <path transform="translate(212,476)" d="m0 0h1v67l-9 11-11 14-6 7h-2v-66l3-5 7-8 1-2h2l2-5 5-6h2l2-4z" fill="#D5D2F3"/>
  <path transform="translate(155,477)" d="m0 0 2 1v64l-11 14-11 13-5 5-1-2v-65l9-10 9-11 5-5 1-3z" fill="#FCFCFC"/>
  <path transform="translate(213,477)" d="m0 0 6 5 8 10 9 11 4 5v66l-6-5-9-11-11-13-2-2z" fill="#A485E4"/>
</svg>
